HIERARCHY
ROOT Hips
{
	OFFSET 0.000000 8.830580 0.000000
	CHANNELS 6 Xposition Yposition Zposition Zrotation Yrotation Xrotation 
	JOINT Spine
	{
		OFFSET 0.000000 0.010000 0.000000
		CHANNELS 3 Zrotation Yrotation Xrotation
		JOINT Spine1
		{
			OFFSET 0.000000 2.459130 0.000000
			CHANNELS 3 Zrotation Yrotation Xrotation
			JOINT Neck
			{
				OFFSET 0.000000 2.484630 0.000000
				CHANNELS 3 Zrotation Yrotation Xrotation
				JOINT Head_virtual
				{
					OFFSET 0.000000 0.000000 0.000000
					CHANNELS 3 Zrotation Yrotation Xrotation
					JOINT Head
					{
						OFFSET 0.000000 0.927525 0.000000
						CHANNELS 3 Zrotation Yrotation Xrotation
						End Site
						{
							OFFSET 0.000000 0.000000 0.000000
						}
					}
				}
				JOINT LeftUpArm_virtual
				{
					OFFSET 0.000000 0.000000 0.000000
					CHANNELS 3 Zrotation Yrotation Xrotation
					JOINT LeftUpArm
					{
						OFFSET 1.248820 0.000000 0.000000
						CHANNELS 3 Zrotation Yrotation Xrotation
						JOINT LeftForeArm
						{
							OFFSET 2.597580 0.000000 0.000000
							CHANNELS 3 Zrotation Yrotation Xrotation
							JOINT LeftHand
							{
								OFFSET 2.455420 0.000000 0.000000
								CHANNELS 3 Zrotation Yrotation Xrotation
								End Site
								{
									OFFSET 0.000000 0.000000 0.000000
								}
							}
						}
					}
				}
				JOINT RightUpArm_virtual
				{
					OFFSET -0.000000 -0.000000 -0.000000
					CHANNELS 3 Zrotation Yrotation Xrotation
					JOINT RightUpArm
					{
						OFFSET -1.248820 -0.000000 -0.000000
						CHANNELS 3 Zrotation Yrotation Xrotation
						JOINT RightForeArm
						{
							OFFSET -2.597580 -0.000000 -0.000000
							CHANNELS 3 Zrotation Yrotation Xrotation
							JOINT RightHand
							{
								OFFSET -2.455420 -0.000000 -0.000000
								CHANNELS 3 Zrotation Yrotation Xrotation
								End Site
								{
									OFFSET 0.000000 0.000000 0.000000
								}
							}
						}
					}
				}
			}
		}
	}
	JOINT LeftUpLeg
	{
		OFFSET 1.271939 0.000000 0.000000
		CHANNELS 3 Zrotation Yrotation Xrotation
		JOINT LeftLowLeg
		{
			OFFSET 0.000000 -4.342910 0.000000
			CHANNELS 3 Zrotation Yrotation Xrotation
			JOINT LeftFoot
			{
				OFFSET 0.000000 -4.487670 0.000000
				CHANNELS 3 Zrotation Yrotation Xrotation
				JOINT LeftToeBase
				{
					OFFSET 0.000000 0.000000 1.515070
					CHANNELS 3 Zrotation Yrotation Xrotation
					End Site
					{
						OFFSET 0.000000 0.000000 0.000000
					}
				}
			}
		}
	}
	JOINT RightUpLeg
	{
		OFFSET -1.271939 0.000000 0.000000
		CHANNELS 3 Zrotation Yrotation Xrotation
		JOINT RightLowLeg
		{
			OFFSET 0.000000 -4.342910 0.000000
			CHANNELS 3 Zrotation Yrotation Xrotation
			JOINT RightFoot
			{
				OFFSET 0.000000 -4.487670 0.000000
				CHANNELS 3 Zrotation Yrotation Xrotation
				JOINT RightToeBase
				{
					OFFSET 0.000000 0.000000 1.515070
					CHANNELS 3 Zrotation Yrotation Xrotation
					End Site
					{
						OFFSET 0.000000 0.000000 0.000000
					}
				}
			}
		}
	}
}
MOTION
Frames: 8
Frame Time: 0.041667
-10.294772 8.844255 28.679522 178.490470 -21.911694 179.322998 1.912107 0.110314 -18.318934 -7.470032 2.969127 19.802893 0.000000 0.000000 0.000000 18.000267 -3.761472 14.005474 4.096440 -6.023143 -83.919912 -25.387699 1.819730 6.565002 -44.831299 -6.943970 27.749800 0.000000 -19.753901 0.000000 6.985750 16.572001 -10.522000 31.338900 -4.709880 4.179993 47.518101 4.245510 15.553009 0.000000 21.110800 0.000000 6.893160 -9.871080 -20.583401 -4.938864 -12.160110 1.266747 0.000000 0.000000 17.181601 -22.094263 10.536925 -11.194954 0.000000 0.000000 -16.099850 3.048628 19.739431 -0.158114 0.000000 0.000000 23.080500 30.728973 -7.241853 -16.863294 0.000000 0.000000 -17.039910 
-10.293943 8.844767 28.676101 178.515572 -22.052395 179.423921 1.898501 0.062908 -18.410112 -7.453386 2.947650 19.790075 0.000000 0.000000 0.000000 18.031773 -3.805716 14.007995 4.080719 -6.024871 -83.945789 -25.392700 1.848790 6.540985 -44.820301 -6.951190 27.792801 0.000000 -19.783001 0.000000 7.004870 16.541401 -10.260300 31.363899 -4.743600 4.098999 47.521301 4.174370 15.548004 0.000000 21.114599 0.000000 6.827980 -9.817510 -20.548599 -4.880485 -12.309556 1.162151 0.000000 0.000000 17.185301 -22.072780 10.537019 -11.192311 0.000000 0.000000 -16.087730 3.058781 19.638288 -0.200782 0.000000 0.000000 23.001900 30.611616 -7.349248 -16.837494 0.000000 0.000000 -17.036590 
-10.293312 8.844803 28.674587 178.521349 -22.141885 179.425622 1.867405 0.029642 -18.407902 -7.390532 2.976594 19.840489 0.000000 0.000000 0.000000 18.067805 -3.875617 13.905591 4.080758 -6.022667 -83.907591 -25.404800 1.834020 6.556000 -44.815399 -7.003850 27.864201 0.000000 -19.824800 0.000000 7.065670 16.554399 -10.182400 31.335100 -4.741750 4.040985 47.537601 4.147180 15.519012 0.000000 21.122299 0.000000 6.833860 -9.859530 -20.521799 -4.867858 -12.374599 1.149807 0.000000 0.000000 17.202101 -22.117651 10.507425 -11.201401 0.000000 0.000000 -16.081730 3.091777 19.629544 -0.142683 0.000000 0.000000 22.921600 30.706072 -7.378557 -16.876583 0.000000 0.000000 -17.003800 
-10.292899 8.844858 28.673318 178.513604 -22.215587 179.503488 1.831653 0.000140 -18.446699 -7.333640 3.000541 19.836535 0.000000 0.000000 0.000000 18.072020 -3.910577 13.845454 4.100611 -6.033545 -83.898603 -25.432301 1.839230 6.614990 -44.800499 -7.068750 27.922899 0.000000 -19.846800 0.000000 7.133250 16.512699 -10.142100 31.307400 -4.731680 3.996002 47.541100 4.111740 15.506012 0.000000 21.124901 0.000000 6.875260 -9.924170 -20.478600 -4.857772 -12.460885 1.075744 0.000000 0.000000 17.199699 -22.127116 10.520711 -11.203415 0.000000 0.000000 -16.051980 3.066562 19.555421 -0.169838 0.000000 0.000000 22.847601 30.723743 -7.358616 -16.877011 0.000000 0.000000 -17.005440 
-10.290976 8.845258 28.671024 178.537827 -22.345158 179.510665 1.809251 -0.019449 -18.429301 -7.310469 3.009864 19.839114 0.000000 0.000000 0.000000 18.130081 -3.978310 13.785936 4.135768 -6.019663 -83.897862 -25.437201 1.813140 6.614014 -44.789799 -7.085570 27.925800 0.000000 -19.831800 0.000000 7.167420 16.482800 -10.039600 31.316299 -4.777960 4.002991 47.542000 4.167840 15.535004 0.000000 21.083000 0.000000 6.894550 -9.923950 -20.397499 -4.813979 -12.569936 1.052859 0.000000 0.000000 17.209499 -22.150019 10.493631 -11.205373 0.000000 0.000000 -16.041560 3.115796 19.506141 -0.147089 0.000000 0.000000 22.820400 30.698719 -7.439079 -16.876347 0.000000 0.000000 -17.022090 
-10.290423 8.844830 28.672083 178.501907 -22.367272 179.589273 1.806446 0.052647 -18.381308 -7.358169 3.037385 19.761214 0.000000 0.000000 0.000000 18.186401 -4.024411 13.760539 4.088821 -5.989159 -83.905687 -25.468100 1.808420 6.609009 -44.728298 -7.078000 28.011600 0.000000 -19.867500 0.000000 7.220190 16.466101 -10.007700 31.266600 -4.765030 3.927002 47.595100 4.093330 15.665985 0.000000 21.074200 0.000000 6.834090 -9.882270 -20.326200 -4.838540 -12.635224 0.974659 0.000000 0.000000 17.217899 -22.141325 10.550924 -11.207277 0.000000 0.000000 -16.033680 3.064446 19.461815 -0.177214 0.000000 0.000000 22.733601 30.767728 -7.396935 -16.923120 0.000000 0.000000 -16.963650 
-10.288783 8.845077 28.671890 178.497851 -22.441326 179.655848 1.804700 0.106195 -18.343533 -7.420752 3.045599 19.690658 0.000000 0.000000 0.000000 18.319479 -4.117528 13.747890 4.011574 -5.921857 -83.913371 -25.486000 1.829580 6.623993 -44.660500 -7.108350 28.026699 0.000000 -19.878500 0.000000 7.188130 16.499901 -10.422200 31.272600 -4.810080 3.902008 47.587502 4.029830 15.770996 0.000000 21.239700 0.000000 6.806990 -9.972420 -20.203800 -4.815095 -12.692491 0.898146 0.000000 0.000000 17.218599 -22.221559 10.503399 -11.201354 0.000000 0.000000 -16.028980 3.051511 19.407276 -0.213399 0.000000 0.000000 22.680099 30.770295 -7.405806 -16.920949 0.000000 0.000000 -16.955180 
-10.287661 8.845322 28.672364 178.490576 -22.536791 179.700524 1.798979 0.138077 -18.295055 -7.474524 3.047764 19.649534 0.000000 0.000000 0.000000 18.429408 -4.180861 13.719712 3.978492 -5.853734 -83.914165 -25.491199 1.850390 6.625000 -44.659901 -7.162420 27.894899 0.000000 -19.820000 0.000000 7.165850 16.493500 -10.348800 31.233500 -4.810290 3.947998 47.625099 3.904560 15.700989 0.000000 21.577900 0.000000 6.485560 -9.931460 -20.063801 -4.805118 -12.805696 0.833562 0.000000 0.000000 17.243799 -22.195261 10.521573 -11.187469 0.000000 0.000000 -16.000320 3.066257 19.469870 -0.217553 0.000000 0.000000 22.630400 30.784682 -7.560307 -16.981945 0.000000 0.000000 -16.956950 
